<svg width="31" height="31" viewBox="0 0 31 31" fill="none" xmlns="http://www.w3.org/2000/svg">
<path d="M15.4998 11.1248C14.3395 11.1248 13.2267 11.5858 12.4062 12.4062C11.5858 13.2267 11.1248 14.3395 11.1248 15.4998C11.1248 16.6602 11.5858 17.773 12.4062 18.5934C13.2267 19.4139 14.3395 19.8748 15.4998 19.8748C16.6602 19.8748 17.773 19.4139 18.5934 18.5934C19.4139 17.773 19.8748 16.6602 19.8748 15.4998C19.8748 14.3395 19.4139 13.2267 18.5934 12.4062C17.773 11.5858 16.6602 11.1248 15.4998 11.1248ZM15.4998 8.20817C17.4337 8.20817 19.2884 8.9764 20.6558 10.3439C22.0233 11.7113 22.7915 13.566 22.7915 15.4998C22.7915 17.4337 22.0233 19.2884 20.6558 20.6558C19.2884 22.0233 17.4337 22.7915 15.4998 22.7915C13.566 22.7915 11.7113 22.0233 10.3439 20.6558C8.9764 19.2884 8.20817 17.4337 8.20817 15.4998C8.20817 13.566 8.9764 11.7113 10.3439 10.3439C11.7113 8.9764 13.566 8.20817 15.4998 8.20817ZM24.979 7.84359C24.979 8.32705 24.7869 8.79072 24.4451 9.13258C24.1032 9.47445 23.6396 9.6665 23.1561 9.6665C22.6726 9.6665 22.209 9.47445 21.8671 9.13258C21.5252 8.79072 21.3332 8.32705 21.3332 7.84359C21.3332 7.36012 21.5252 6.89645 21.8671 6.55459C22.209 6.21273 22.6726 6.02067 23.1561 6.02067C23.6396 6.02067 24.1032 6.21273 24.4451 6.55459C24.7869 6.89645 24.979 7.36012 24.979 7.84359ZM15.4998 3.83317C11.8919 3.83317 11.3028 3.84338 9.62421 3.91775C8.48088 3.97171 7.7138 4.12484 7.00213 4.40192C6.36921 4.64692 5.91275 4.94005 5.42713 5.42713C4.97068 5.86813 4.61973 6.40652 4.40046 7.00213C4.12338 7.71671 3.97025 8.48234 3.91775 9.62421C3.84192 11.2342 3.83317 11.7971 3.83317 15.4998C3.83317 19.1078 3.84338 19.6969 3.91775 21.3755C3.97171 22.5173 4.12484 23.2859 4.40046 23.9961C4.64838 24.6305 4.94005 25.0869 5.42421 25.5711C5.91567 26.0611 6.37213 26.3542 6.99921 26.5963C7.71963 26.8748 8.48671 27.0294 9.62421 27.0819C11.2342 27.1578 11.7971 27.1665 15.4998 27.1665C19.1078 27.1665 19.6969 27.1563 21.3755 27.0819C22.5159 27.028 23.2844 26.8748 23.9961 26.5992C24.6275 26.3528 25.0869 26.0596 25.5711 25.5755C26.0625 25.084 26.3557 24.6275 26.5978 24.0005C26.8748 23.2815 27.0294 22.513 27.0819 21.3755C27.1578 19.7655 27.1665 19.2025 27.1665 15.4998C27.1665 11.8919 27.1563 11.3028 27.0819 9.62421C27.028 8.4838 26.8748 7.7138 26.5978 7.00213C26.378 6.40713 26.0277 5.86895 25.5725 5.42713C25.1317 4.97045 24.5933 4.61946 23.9975 4.40046C23.283 4.12338 22.5159 3.97025 21.3755 3.91775C19.7655 3.84192 19.2025 3.83317 15.4998 3.83317ZM15.4998 0.916504C19.4621 0.916504 19.9565 0.931087 21.5111 1.004C23.0642 1.07692 24.1215 1.32046 25.0519 1.68213C26.0144 2.05255 26.8253 2.55421 27.6361 3.36359C28.3776 4.0926 28.9514 4.97445 29.3175 5.94775C29.6778 6.87671 29.9228 7.93546 29.9957 9.48859C30.0642 11.0432 30.0832 11.5375 30.0832 15.4998C30.0832 19.4621 30.0686 19.9565 29.9957 21.5111C29.9228 23.0642 29.6778 24.1215 29.3175 25.0519C28.9525 26.0258 28.3786 26.9078 27.6361 27.6361C26.9069 28.3774 26.0251 28.9511 25.0519 29.3175C24.123 29.6778 23.0642 29.9228 21.5111 29.9957C19.9565 30.0642 19.4621 30.0832 15.4998 30.0832C11.5375 30.0832 11.0432 30.0686 9.48859 29.9957C7.93546 29.9228 6.87817 29.6778 5.94775 29.3175C4.97406 28.9522 4.09206 28.3783 3.36359 27.6361C2.62189 26.9072 2.04807 26.0253 1.68213 25.0519C1.32046 24.123 1.07692 23.0642 1.004 21.5111C0.935462 19.9565 0.916504 19.4621 0.916504 15.4998C0.916504 11.5375 0.931087 11.0432 1.004 9.48859C1.07692 7.934 1.32046 6.87817 1.68213 5.94775C2.04706 4.97385 2.62101 4.09176 3.36359 3.36359C4.09227 2.62163 4.97421 2.04778 5.94775 1.68213C6.87817 1.32046 7.934 1.07692 9.48859 1.004C11.0432 0.935462 11.5375 0.916504 15.4998 0.916504Z" fill="white"/>
</svg>
