<svg width="104" height="45" viewBox="0 0 104 45" fill="none" xmlns="http://www.w3.org/2000/svg">
<path d="M0 44.177V0H19.4129C22.8233 0 25.6871 0.452987 28.0044 1.35896C30.3363 2.26493 32.0925 3.5448 33.273 5.19856C34.4681 6.85232 35.0657 8.80088 35.0657 11.0442C35.0657 12.6692 34.7013 14.1504 33.9726 15.4878C33.2585 16.8252 32.2528 17.9469 30.9557 18.8529C29.6586 19.7445 28.1429 20.3628 26.4086 20.708V21.1394C28.3324 21.2113 30.0813 21.693 31.6553 22.5846C33.2293 23.4618 34.4827 24.677 35.4155 26.2301C36.3482 27.7688 36.8146 29.5808 36.8146 31.6659C36.8146 34.0819 36.1733 36.2317 34.8908 38.1156C33.6228 39.9994 31.8156 41.4806 29.4692 42.5592C27.1227 43.6377 24.3244 44.177 21.0744 44.177H0ZM12.1549 34.5996H17.8389C19.8793 34.5996 21.4096 34.2257 22.4298 33.4779C23.45 32.7157 23.9601 31.594 23.9601 30.1128C23.9601 29.0774 23.7196 28.2002 23.2387 27.4812C22.7577 26.7622 22.0727 26.2157 21.1837 25.8418C20.3092 25.4679 19.2526 25.281 18.0138 25.281H12.1549V34.5996ZM12.1549 17.8606H17.1393C18.2033 17.8606 19.1433 17.6952 19.9595 17.3645C20.7756 17.0337 21.4096 16.5592 21.8614 15.9408C22.3278 15.3081 22.561 14.5387 22.561 13.6327C22.561 12.2666 22.0654 11.224 21.0744 10.505C20.0833 9.77157 18.8299 9.40487 17.3142 9.40487H12.1549V17.8606Z" fill="white"/>
<path d="M8.98339 42.4276L8.78639 41.893C8.78639 41.2451 8.95056 40.4838 9.27888 39.6091C9.57438 38.7668 9.90271 38.1027 10.2639 37.6167L10.8549 37.3737C11.0519 37.4061 11.2489 37.4223 11.4459 37.4223C11.6429 37.4547 11.8563 37.4709 12.0861 37.4709C12.3159 37.4709 12.5458 37.4385 12.7756 37.3737C13.0054 37.3413 13.2024 37.2441 13.3666 37.0822H13.2681C13.3994 37.0174 13.7113 36.8878 14.2038 36.6934C14.6963 36.499 14.9754 36.4018 15.0411 36.4018C15.4351 36.4018 15.6485 36.6286 15.6813 37.0822C15.7141 37.5357 15.7141 37.8921 15.6813 38.1512C16.6991 37.8273 17.7334 37.2118 18.784 36.3047C19.8347 35.3976 20.8689 34.2961 21.8867 33.0002C22.9374 31.7368 23.9224 30.4247 24.8417 29.064C25.761 27.671 26.5982 26.3427 27.3534 25.0793C28.1086 23.8158 28.7324 22.7467 29.2249 21.872L27.7474 21.8234C27.4191 21.8234 27.1236 21.9692 26.8609 22.2608C26.6311 22.52 26.3356 22.6495 25.9744 22.6495C25.4819 22.6495 24.8581 22.7305 24.1029 22.8925C23.3478 23.0221 22.5598 23.2165 21.739 23.4757C20.951 23.7348 20.2122 24.0426 19.5227 24.399C18.8661 24.7229 18.39 25.0631 18.0945 25.4194C17.9304 25.5814 17.7826 25.9054 17.6513 26.3913C17.5199 26.8449 17.3722 27.0879 17.208 27.1203C16.9782 27.0231 16.8305 26.8611 16.7648 26.6343C16.6991 26.3751 16.6663 26.1484 16.6663 25.954C16.6663 24.5285 17.0274 23.4757 17.7498 22.7953C18.5049 22.0826 19.4407 21.5805 20.557 21.2889C21.6733 20.9973 22.7896 20.7705 23.9059 20.6086L23.8567 20.4628L24.1029 20.2684C24.5298 20.2684 24.9402 20.2846 25.3342 20.317C25.761 20.3494 26.1878 20.3656 26.6147 20.3656C26.9758 20.3656 27.337 20.3494 27.6981 20.317C28.0921 20.2522 28.4533 20.155 28.7816 20.0254L29.7666 20.1226H30.0621C30.5218 18.9887 30.965 17.8387 31.3918 16.6724C31.8515 15.5061 32.0485 14.3075 31.9828 13.0764L31.9336 12.2503C31.9008 12.5742 31.7858 12.8496 31.5888 13.0764C31.3918 13.3032 31.1784 13.5299 30.9486 13.7567L30.6531 14.4856L30.5546 14.3399C30.6203 13.9511 30.6859 13.5623 30.7516 13.1736C30.8501 12.7524 30.8993 12.3475 30.8993 11.9587C30.8993 11.4728 30.8337 10.9868 30.7024 10.5009C30.6039 10.0149 30.5218 9.54517 30.4561 9.09162L30.6039 8.70287L30.5054 8.3627L30.8009 7.77957V7.73097L29.9636 7.19643L31.9828 6.32173C32.4097 6.38652 32.8529 6.41892 33.3126 6.41892C33.7722 6.41892 34.1991 6.5485 34.5931 6.80767C34.7901 7.68238 34.8885 8.58948 34.8885 9.52898C34.8885 11.3108 34.5931 13.0926 34.0021 14.8744C33.4111 16.6562 32.7872 18.3732 32.1306 20.0254C33.6081 20.0902 35.0855 20.1226 36.563 20.1226C38.0733 20.1226 39.5837 20.155 41.094 20.2198C41.5536 18.8916 42.0625 17.5147 42.6207 16.0893C43.1789 14.6638 43.8191 13.287 44.5414 11.9587C45.2637 10.5981 46.101 9.41559 47.0531 8.4113C47.48 7.95775 47.8411 7.4718 48.1366 6.95346C48.4321 6.40272 48.8261 5.93297 49.3186 5.54421C49.3514 5.34983 49.4499 5.13926 49.6141 4.91248C49.8111 4.68571 50.0245 4.57232 50.2543 4.57232C50.517 4.57232 50.9274 4.63711 51.4856 4.7667C52.0437 4.89628 52.5526 5.07446 53.0123 5.30124C53.472 5.52801 53.7018 5.81958 53.7018 6.17594C53.7018 6.33793 53.669 6.49991 53.6033 6.66189C53.5705 6.82387 53.5376 6.98586 53.5048 7.14784L53.2586 7.24503L53.1601 6.75908C52.7332 7.53659 52.1751 8.45989 51.4856 9.52898C50.7961 10.5657 50.1558 11.4242 49.5649 12.1045V11.7157H49.1216C49.0559 11.7157 48.9246 11.6995 48.7276 11.6671C48.5306 11.6023 48.3993 11.5538 48.3336 11.5214V12.0073C47.9396 12.1693 47.5456 12.5257 47.1516 13.0764C46.7905 13.5947 46.4293 14.1617 46.0681 14.7772C45.7398 15.3603 45.4279 15.8301 45.1324 16.1865L45.0832 16.5266L45.1817 16.7696L44.2459 18.276L44.1967 18.6648L43.9504 18.519C43.9833 18.6486 43.9012 18.9563 43.7042 19.4423C43.5072 19.8958 43.3759 20.2036 43.3102 20.3656C43.4743 20.3656 43.8519 20.398 44.4429 20.4628C45.0667 20.5276 45.6742 20.6086 46.2651 20.7058C46.8561 20.8029 47.168 20.9163 47.2009 21.0459C46.4786 21.2403 45.7562 21.3375 45.0339 21.3375C44.3116 21.3375 43.5893 21.3537 42.8669 21.3861C42.7356 21.6777 42.6207 21.9854 42.5222 22.3094C42.4237 22.601 42.3252 22.8925 42.2267 23.1841C42.0954 23.3137 41.9476 23.7996 41.7835 24.6419C41.6521 25.4518 41.5208 26.3751 41.3895 27.4118C41.2581 28.4485 41.1432 29.4042 41.0447 30.2789C40.979 31.1536 40.9462 31.7368 40.9462 32.0283L41.1925 32.7086H41.2417L41.5865 33.146V33.1946L41.5372 33.2432L40.306 33.146C40.0105 32.9192 39.7971 32.5629 39.6657 32.0769C39.5672 31.591 39.4852 31.186 39.4195 30.862L39.2717 30.7649V30.5219C39.2717 28.9993 39.3702 27.509 39.5672 26.0512C39.7971 24.5609 40.0761 23.1031 40.4045 21.6777L40.5522 21.4347C40.2896 21.4347 40.0105 21.4509 39.715 21.4833C39.4523 21.4833 39.1897 21.4833 38.927 21.4833C38.0077 21.4833 37.0555 21.4347 36.0705 21.3375L36.0213 21.5319L35.2333 21.4347L34.9378 21.5805C34.314 21.5805 33.6901 21.5967 33.0663 21.6291C32.4753 21.6615 31.8679 21.71 31.2441 21.7748C31.0143 22.1312 30.768 22.4876 30.5054 22.8439C30.2755 23.1679 30.0785 23.5404 29.9144 23.9616H30.0129L29.7666 24.2046L29.7174 24.156L29.0771 25.3708V25.468L28.7324 26.0512L28.6831 26.0026L26.9102 28.9183L26.9594 29.064L25.8759 30.1331V30.2303L25.6789 30.7649V30.862C24.6939 31.9959 23.7418 33.1946 22.8225 34.4581C21.9031 35.7215 20.8032 36.823 19.5227 37.7625C19.2929 37.9245 18.981 38.1512 18.587 38.4428C18.193 38.7344 17.8154 38.9936 17.4543 39.2203C17.1259 39.4471 16.9454 39.5443 16.9125 39.5119L14.8441 40.7754C14.7127 41.0021 14.4008 41.1965 13.9083 41.3585C13.383 41.5529 12.792 41.7149 12.1353 41.8444C11.4787 42.0064 10.8549 42.136 10.2639 42.2332C9.67288 42.3304 9.24605 42.3952 8.98339 42.4276Z" fill="#CACACA"/>
<path d="M49.8596 32.3685C49.5641 32.3685 49.2029 32.1741 48.7761 31.7853C48.3821 31.3966 48.0538 31.105 47.7911 30.9106C47.7254 30.4895 47.6105 30.1169 47.4464 29.793C47.2822 29.4366 47.2001 29.064 47.2001 28.6753C47.2001 28.0921 47.4135 27.4118 47.8404 26.6343C48.3 25.8244 48.8746 25.0307 49.5641 24.2532C50.2864 23.4757 51.0087 22.8277 51.7311 22.3094C52.4862 21.791 53.1593 21.5319 53.7503 21.5319V21.4347C54.2099 21.5319 54.6368 21.8234 55.0308 22.3094C55.4576 22.7953 55.671 23.2489 55.671 23.67C55.671 24.0588 55.4248 24.4637 54.9323 24.8849C54.4726 25.2737 53.898 25.6462 53.2085 26.0026C52.5519 26.3265 51.8952 26.5857 51.2386 26.7801C50.6147 26.9745 50.1222 27.0717 49.7611 27.0717V27.1689C49.5312 27.5252 49.3014 27.9788 49.0716 28.5295C48.8746 29.0478 48.7761 29.5338 48.7761 29.9873C48.7761 30.1493 48.8253 30.3275 48.9238 30.5219C49.1537 30.6839 49.4492 30.7649 49.8103 30.7649C50.1715 30.7325 50.467 30.7325 50.6968 30.7649L50.7461 30.8135L50.8938 30.5705C51.3206 30.5381 51.7311 30.4409 52.125 30.2789V29.9873H52.4205V29.8416L52.6175 29.8902C52.7817 29.8254 52.8966 29.7606 52.9623 29.6958C53.0608 29.5986 53.1757 29.5176 53.307 29.4528L53.6025 29.5986V29.55L54.489 28.7239H54.5383L54.686 28.8211V28.7725C55.1128 28.3837 55.5725 28.0274 56.065 27.7034C56.5575 27.3794 56.9187 26.9583 57.1485 26.4399L57.6902 26.0512L57.7887 26.1484C57.7887 26.3751 57.7066 26.5857 57.5425 26.7801C57.3783 26.9745 57.1813 27.1041 56.9515 27.1689C56.6888 27.7844 56.2948 28.3027 55.7695 28.7239C55.277 29.145 54.7681 29.5824 54.2428 30.0359H54.095L54.0458 30.2789C53.422 30.7001 52.7653 31.1536 52.0758 31.6396C51.4191 32.1255 50.6804 32.3685 49.8596 32.3685ZM50.7953 26.1484H50.8938V26.0512C51.1236 25.9864 51.5176 25.792 52.0758 25.468C52.6668 25.1441 53.2249 24.8039 53.7503 24.4475C54.2756 24.0588 54.5547 23.7834 54.5875 23.6214H54.6368L54.5875 23.3785L54.6368 23.1355C54.6039 23.1355 54.5383 23.1355 54.4398 23.1355C54.3413 23.1031 54.2592 23.0869 54.1935 23.0869C53.7667 23.3785 53.3399 23.6538 52.913 23.913C52.4862 24.1722 52.0594 24.4313 51.6326 24.6905H51.5341L51.4848 25.0793C51.2878 25.2089 51.1401 25.3708 51.0416 25.5652C50.9431 25.7272 50.861 25.9216 50.7953 26.1484ZM58.2812 26.0026L57.9857 25.9054L57.9365 25.6138L58.429 25.468L58.4782 25.6138L58.2812 26.0026Z" fill="#CACACA"/>
<path d="M58.8076 34.701C58.1837 34.701 57.7241 34.5228 57.4286 34.1665C57.1659 33.8101 57.0346 33.3404 57.0346 32.7572C57.0346 32.5629 57.0838 32.2227 57.1823 31.7368C57.2808 31.2184 57.4122 30.6677 57.5763 30.0845C57.7733 29.5014 57.9703 28.9993 58.1673 28.5781C58.3972 28.1569 58.627 27.9464 58.8568 27.9464C58.9225 27.59 59.0538 27.1365 59.2508 26.5857C59.4806 26.035 59.7597 25.63 60.0881 25.3708L60.3835 25.2737V25.1765L60.876 24.6419C60.9745 24.5123 61.0238 24.4637 61.0238 24.4961C61.0566 24.4961 61.073 24.4961 61.073 24.4961C61.073 24.2046 61.1223 23.913 61.2208 23.6214C61.582 23.3947 61.8446 23.0869 62.0088 22.6981L62.058 22.358H62.1565L63.1908 20.317V20.2684C63.1908 20.1064 63.2564 19.993 63.3878 19.9282C63.5519 19.8311 63.6012 19.7177 63.5355 19.5881C63.7982 19.1345 64.2086 18.519 64.7667 17.7415C65.3577 16.9316 65.9816 16.0893 66.6382 15.2146C67.3277 14.3399 67.9844 13.5299 68.6082 12.7848C69.232 12.0397 69.7409 11.5052 70.1349 11.1812L70.3812 11.084L70.7259 10.4037C70.9886 10.3389 71.2677 10.2417 71.5632 10.1121C71.8587 9.95013 72.1706 9.86914 72.4989 9.86914C72.7944 9.86914 73.1555 9.95013 73.5824 10.1121C74.042 10.2417 74.436 10.4361 74.7644 10.6952C75.0927 10.9544 75.2404 11.2622 75.2076 11.6185L75.1584 12.0559L75.1091 12.1531C74.8136 12.6714 74.4196 13.1088 73.9271 13.4651C73.6316 14.437 73.0899 15.4575 72.3019 16.5266C71.5139 17.5633 70.6274 18.5838 69.6424 19.5881C68.6574 20.5924 67.6889 21.5157 66.7367 22.358C65.7846 23.2003 64.9802 23.8968 64.3235 24.4475C63.6997 24.9983 63.3549 25.3546 63.2893 25.5166C63.0923 25.549 62.7968 25.711 62.4028 26.0026C62.0416 26.2617 61.6969 26.5533 61.3685 26.8773C61.073 27.2012 60.9253 27.4442 60.9253 27.6062L60.7283 28.0436C59.809 28.5943 59.1359 29.3394 58.7091 30.2789C58.3151 31.2184 58.1181 32.2065 58.1181 33.2432C58.1181 33.6967 58.233 33.9883 58.4628 34.1179C58.6927 34.2475 58.824 34.4419 58.8568 34.701H58.8076ZM62.7968 24.7877C63.2564 24.4313 63.8967 23.913 64.7175 23.2327C65.5383 22.52 66.4084 21.7262 67.3277 20.8515C68.2799 19.9768 69.1664 19.0697 69.9872 18.1302C70.8408 17.1907 71.5303 16.2998 72.0556 15.4575C72.581 14.6152 72.8436 13.8863 72.8436 13.2708C72.8436 13.206 72.8108 13.125 72.7451 13.0278C72.7123 12.8982 72.6795 12.801 72.6466 12.7362H72.5974C72.4004 12.7362 72.0228 12.9954 71.4647 13.5137C70.9393 13.9997 70.2991 14.6638 69.5439 15.5061C68.8216 16.316 68.0664 17.2069 67.2785 18.1788C66.4905 19.1183 65.7517 20.0416 65.0622 20.9487C64.4056 21.8558 63.8638 22.6495 63.437 23.3299C63.0102 24.0102 62.7968 24.4961 62.7968 24.7877Z" fill="#CACACA"/>
<path d="M59.4351 40.6296C58.7785 40.6296 58.1218 40.4676 57.4651 40.1436C56.7757 39.8521 56.2011 39.4309 55.7414 38.8802C55.2818 38.3294 55.0519 37.6977 55.0519 36.985L55.1997 36.6448C55.528 37.0012 55.7742 37.3899 55.9384 37.8111C56.1026 38.2322 56.3324 38.5724 56.6279 38.8316C56.9234 39.1231 57.4159 39.2689 58.1054 39.2689C58.2367 39.2689 58.368 39.2527 58.4994 39.2203C58.6307 39.2203 58.762 39.2041 58.8934 39.1717C59.0575 39.2365 59.3859 39.0907 59.8784 38.7344C60.3709 38.378 60.929 37.9245 61.5528 37.3737C62.1767 36.823 62.8005 36.2237 63.4243 35.5757C64.0153 34.9602 64.5242 34.3933 64.951 33.8749C65.345 33.389 65.5584 33.0488 65.5913 32.8544C65.8539 32.4657 66.1166 32.0445 66.3793 31.591C66.6748 31.1374 66.9374 30.7001 67.1673 30.2789L67.2658 30.3275L67.4135 30.1331C67.6762 29.8416 67.8403 29.55 67.906 29.2584C67.9717 28.9669 68.1687 28.6915 68.497 28.4323C68.7597 28.0436 68.9895 27.6548 69.1865 27.266C69.4163 26.8773 69.5312 26.4561 69.5312 26.0026C69.5312 25.8082 69.5805 25.63 69.679 25.468C69.7775 25.2737 69.876 25.0955 69.9745 24.9335C70.6311 23.9292 71.058 23.0059 71.255 22.1636C71.452 21.3213 71.6982 20.3494 71.9937 19.2479C71.928 19.0859 71.8295 18.9401 71.6982 18.8106C71.5669 18.681 71.452 18.5514 71.3535 18.4218H71.452C72.0758 18.4218 72.519 18.6 72.7817 18.9563C73.0443 19.3127 73.1757 19.7663 73.1757 20.317C73.1757 20.5114 73.1264 20.8677 73.0279 21.3861C72.9294 21.872 72.7817 22.4066 72.5847 22.9897C72.4205 23.5728 72.2235 24.075 71.9937 24.4961C71.7967 24.9173 71.5833 25.1279 71.3535 25.1279C71.3206 25.387 71.255 25.6462 71.1565 25.9054C71.0908 26.1322 71.0087 26.3589 70.9102 26.5857C71.0744 26.4237 71.2385 26.2294 71.4027 26.0026C71.5997 25.7434 71.8131 25.5976 72.0429 25.5652C72.2399 25.4032 72.3713 25.1927 72.4369 24.9335C72.5354 24.6743 72.6996 24.4637 72.9294 24.3018C72.9951 24.3018 73.0936 24.2694 73.2249 24.2046C73.3891 24.1074 73.4219 24.0264 73.3234 23.9616L74.0129 23.5242H74.2592C74.3248 23.2003 74.5382 23.0059 74.8994 22.9411C75.2934 22.5847 75.5889 22.3418 75.7859 22.2122C76.0157 22.0826 76.2456 22.0016 76.4754 21.9692C76.7381 21.9044 77.1156 21.8396 77.6081 21.7748L78.0021 21.9692C78.1663 21.872 78.314 21.8234 78.4454 21.8234C78.905 21.8234 79.2333 22.0988 79.4303 22.6495C79.6602 23.2003 79.7751 23.6538 79.7751 24.0102C79.7751 24.8849 79.5945 25.5328 79.2334 25.954C78.8722 26.3427 78.4618 26.6991 78.0021 27.0231C77.5753 27.3146 77.2305 27.752 76.9679 28.3351C76.3769 28.6267 75.8023 28.9993 75.2442 29.4528C74.7845 29.5824 74.3905 29.8254 74.0622 30.1817C73.7338 30.5381 73.3399 30.7973 72.8802 30.9592C72.125 31.186 71.337 31.4128 70.5162 31.6396C69.7282 31.8339 68.9238 31.8987 68.103 31.8339C67.9717 32.3199 67.6762 32.9354 67.2165 33.6805C66.7569 34.4581 66.2644 35.2032 65.739 35.9159C65.2137 36.661 64.7869 37.2765 64.4585 37.7625L63.5721 38.1512C63.4736 38.2808 63.3751 38.4104 63.2766 38.54C63.1452 38.702 63.0139 38.8154 62.8826 38.8802H62.6856C62.2259 39.3985 61.7663 39.8197 61.3066 40.1436C60.8141 40.4676 60.1903 40.6296 59.4351 40.6296ZM68.7432 30.4733C70.7132 30.3761 72.519 29.9873 74.1607 29.307C75.8351 28.6267 77.2305 27.428 78.3469 25.711C78.6095 25.2899 78.7409 24.9011 78.7409 24.5447C78.7409 24.2208 78.6095 23.994 78.3469 23.8644C78.0842 23.7348 77.8051 23.67 77.5096 23.67C76.6888 23.67 75.8352 23.8968 74.9487 24.3504C74.0622 24.7715 73.2085 25.3385 72.3877 26.0512C71.5997 26.7315 70.8774 27.4766 70.2207 28.2865C69.5969 29.064 69.1044 29.793 68.7432 30.4733ZM69.9252 27.995L70.073 27.8978V27.8006L70.0237 27.8978L69.9252 27.995Z" fill="#CACACA"/>
<path d="M83.6031 32.3685C83.3076 32.3685 82.9464 32.1741 82.5196 31.7853C82.1256 31.3966 81.7973 31.105 81.5346 30.9106C81.4689 30.4895 81.354 30.1169 81.1899 29.793C81.0257 29.4366 80.9436 29.064 80.9436 28.6753C80.9436 28.0921 81.157 27.4118 81.5838 26.6343C82.0435 25.8244 82.6181 25.0307 83.3076 24.2532C84.0299 23.4757 84.7522 22.8277 85.4746 22.3094C86.2297 21.791 86.9028 21.5319 87.4938 21.5319V21.4347C87.9534 21.5319 88.3803 21.8234 88.7743 22.3094C89.2011 22.7953 89.4145 23.2489 89.4145 23.67C89.4145 24.0588 89.1683 24.4637 88.6758 24.8849C88.2161 25.2737 87.6415 25.6462 86.952 26.0026C86.2954 26.3265 85.6387 26.5857 84.9821 26.7801C84.3582 26.9745 83.8657 27.0717 83.5046 27.0717V27.1689C83.2747 27.5252 83.0449 27.9788 82.8151 28.5295C82.6181 29.0478 82.5196 29.5338 82.5196 29.9873C82.5196 30.1493 82.5688 30.3275 82.6673 30.5219C82.8972 30.6839 83.1927 30.7649 83.5538 30.7649C83.915 30.7325 84.2105 30.7325 84.4403 30.7649L84.4896 30.8135L84.6373 30.5705C85.0641 30.5381 85.4746 30.4409 85.8685 30.2789V29.9873H86.164V29.8416L86.361 29.8902C86.5252 29.8254 86.6401 29.7606 86.7058 29.6958C86.8043 29.5986 86.9192 29.5176 87.0505 29.4528L87.346 29.5986V29.55L88.2325 28.7239H88.2818L88.4295 28.8211V28.7725C88.8563 28.3837 89.316 28.0274 89.8085 27.7034C90.301 27.3794 90.6622 26.9583 90.892 26.4399L91.4337 26.0512L91.5322 26.1484C91.5322 26.3751 91.4501 26.5857 91.286 26.7801C91.1218 26.9745 90.9248 27.1041 90.695 27.1689C90.4323 27.7844 90.0383 28.3027 89.513 28.7239C89.0205 29.145 88.5116 29.5824 87.9863 30.0359H87.8385L87.7893 30.2789C87.1654 30.7001 86.5088 31.1536 85.8193 31.6396C85.1626 32.1255 84.4239 32.3685 83.6031 32.3685ZM84.5388 26.1484H84.6373V26.0512C84.8671 25.9864 85.2611 25.792 85.8193 25.468C86.4103 25.1441 86.9685 24.8039 87.4938 24.4475C88.0191 24.0588 88.2982 23.7834 88.331 23.6214H88.3803L88.331 23.3785L88.3803 23.1355C88.3474 23.1355 88.2818 23.1355 88.1833 23.1355C88.0848 23.1031 88.0027 23.0869 87.937 23.0869C87.5102 23.3785 87.0834 23.6538 86.6565 23.913C86.2297 24.1722 85.8029 24.4313 85.3761 24.6905H85.2776L85.2283 25.0793C85.0313 25.2089 84.8836 25.3708 84.7851 25.5652C84.6866 25.7272 84.6045 25.9216 84.5388 26.1484ZM92.0247 26.0026L91.7292 25.9054L91.68 25.6138L92.1725 25.468L92.2217 25.6138L92.0247 26.0026Z" fill="#CACACA"/>
<path d="M99.2721 31.5424C98.7796 31.5424 98.402 31.348 98.1393 30.9592L97.0066 30.4247C96.8753 30.1331 96.8096 29.7768 96.8096 29.3556C96.8096 28.6753 96.9738 27.9464 97.3021 27.1689C97.6633 26.3589 98.008 25.6786 98.3363 25.1279C98.1065 24.9983 97.9095 24.8363 97.7453 24.6419C97.5812 24.4475 97.417 24.2532 97.2528 24.0588L97.1051 23.9616C96.9738 24.0912 96.826 24.2046 96.6618 24.3018C96.4977 24.399 96.3335 24.4637 96.1694 24.4961C95.8739 24.7877 95.447 25.2737 94.8889 25.954C94.3307 26.6019 93.7233 27.2822 93.0667 27.995C92.41 28.6753 91.7697 29.2746 91.1459 29.793C90.5549 30.3113 90.0789 30.5705 89.7177 30.5705L89.6684 30.4733C89.7013 30.2789 89.849 30.0683 90.1117 29.8416C90.4072 29.5824 90.6206 29.388 90.7519 29.2584C90.8176 28.9993 90.9818 28.7725 91.2444 28.5781C91.5071 28.3837 91.7533 28.2379 91.9832 28.1407H92.0324L92.3279 27.7034L92.5742 27.5576L92.5249 27.509L92.8697 27.266C92.9353 27.1041 93.0338 26.9583 93.1651 26.8287C93.2965 26.6991 93.4114 26.5695 93.5099 26.4399V26.3427C94.2322 25.792 94.8889 25.1927 95.4799 24.5447C96.1037 23.8644 96.7439 23.2003 97.4006 22.5524L97.4498 22.5038L97.4006 22.2122C97.4006 21.8558 97.4827 21.4671 97.6468 21.0459C97.8438 20.5924 98.0573 20.2522 98.2871 20.0254C98.5169 19.7015 98.796 19.3613 99.1243 19.0049C99.4855 18.6162 99.8795 18.4218 100.306 18.4218C100.635 18.4218 100.832 18.5838 100.897 18.9078C100.963 19.1993 100.996 19.4585 100.996 19.6853C100.996 20.4952 100.782 21.1269 100.356 21.5805C99.9287 22.0016 99.4855 22.3256 99.0258 22.5524C98.599 22.7791 98.3856 23.0221 98.3856 23.2813L99.1736 23.6214L99.4691 23.3785L99.5183 23.4271H99.6168C99.8138 23.3299 100.011 23.2489 100.208 23.1841C100.405 23.0869 100.618 23.0383 100.848 23.0383C101.045 23.0383 101.242 23.1031 101.439 23.2327C101.636 23.3299 101.8 23.4271 101.932 23.5242L101.981 23.9616C102.014 24.2532 101.882 24.5771 101.587 24.9335C101.324 25.2575 100.996 25.6462 100.602 26.0998C100.208 26.5209 99.8631 27.0393 99.5676 27.6548C99.2721 28.2379 99.1243 28.9183 99.1243 29.6958C99.1243 29.8902 99.1572 30.1007 99.2228 30.3275C99.3213 30.5219 99.5019 30.6191 99.7646 30.6191C100.159 30.6191 100.602 30.4733 101.094 30.1817C101.587 29.8902 102.079 29.5662 102.572 29.2098C103.064 28.8211 103.475 28.5295 103.803 28.3351L104 28.5781C104 28.8049 103.803 29.0802 103.409 29.4042C103.015 29.7282 102.539 30.0521 101.981 30.3761C101.423 30.7001 100.881 30.9754 100.356 31.2022C99.8631 31.429 99.5019 31.5424 99.2721 31.5424Z" fill="#CACACA"/>
</svg>
