<svg width="31" height="31" viewBox="0 0 31 31" fill="none" xmlns="http://www.w3.org/2000/svg">
<path d="M15.4998 27.1665C18.594 27.1665 21.5615 25.9373 23.7494 23.7494C25.9373 21.5615 27.1665 18.594 27.1665 15.4998C27.1665 12.4056 25.9373 9.43818 23.7494 7.25026C21.5615 5.06233 18.594 3.83317 15.4998 3.83317C12.4056 3.83317 9.43818 5.06233 7.25026 7.25026C5.06233 9.43818 3.83317 12.4056 3.83317 15.4998C3.83317 18.594 5.06233 21.5615 7.25026 23.7494C9.43818 25.9373 12.4056 27.1665 15.4998 27.1665ZM15.4998 30.0832C7.44546 30.0832 0.916504 23.5542 0.916504 15.4998C0.916504 7.44546 7.44546 0.916504 15.4998 0.916504C23.5542 0.916504 30.0832 7.44546 30.0832 15.4998C30.0832 23.5542 23.5542 30.0832 15.4998 30.0832ZM10.9644 17.2061L7.3215 16.07C6.534 15.8294 6.52963 15.2869 7.49796 14.8975L21.6919 9.41421C22.5159 9.0788 22.9825 9.50317 22.7157 10.5663L20.2992 21.9705C20.13 22.7828 19.6415 22.9767 18.9634 22.6019L15.2432 19.8486L13.5092 21.5228C13.3313 21.6948 13.1869 21.8421 12.9128 21.8786C12.64 21.9165 12.4155 21.8348 12.2507 21.3828L10.9819 17.1959L10.9644 17.2075V17.2061Z" fill="white"/>
</svg>
