<svg width="31" height="31" viewBox="0 0 31 31" fill="none" xmlns="http://www.w3.org/2000/svg">
<path d="M8.57715 24.9703L9.63298 25.5871C11.4135 26.6256 13.4386 27.1707 15.4999 27.1665C17.8073 27.1665 20.0629 26.4823 21.9815 25.2003C23.9001 23.9184 25.3954 22.0963 26.2785 19.9645C27.1615 17.8327 27.3925 15.4869 26.9424 13.2238C26.4922 10.9607 25.381 8.88187 23.7494 7.25026C22.1178 5.61865 20.039 4.5075 17.7759 4.05734C15.5128 3.60718 13.167 3.83822 11.0352 4.72124C8.90341 5.60427 7.08133 7.09961 5.79938 9.01818C4.51743 10.9368 3.83319 13.1924 3.83319 15.4998C3.83319 17.594 4.38298 19.6021 5.41402 21.3682L6.02944 22.424L5.07715 25.9255L8.57715 24.9703ZM0.922357 30.0832L2.89402 22.8382C1.59485 20.6111 0.912288 18.0782 0.916523 15.4998C0.916523 7.44546 7.44548 0.916504 15.4999 0.916504C23.5542 0.916504 30.0832 7.44546 30.0832 15.4998C30.0832 23.5542 23.5542 30.0832 15.4999 30.0832C12.9227 30.0873 10.3908 29.4053 8.16444 28.1071L0.922357 30.0832ZM10.2367 8.65734C10.4321 8.64275 10.629 8.64275 10.8244 8.6515C10.9032 8.65734 10.9819 8.66609 11.0607 8.67484C11.2926 8.70109 11.5478 8.84255 11.6338 9.03796C12.0684 10.0238 12.4913 11.0169 12.8996 12.013C12.9901 12.2346 12.9361 12.519 12.764 12.7961C12.6457 12.9835 12.5177 13.1645 12.3805 13.3386C12.2157 13.55 11.8613 13.938 11.8613 13.938C11.8613 13.938 11.7169 14.11 11.7724 14.3244C11.7928 14.4061 11.8599 14.5242 11.9211 14.6234L12.0071 14.7619C12.3805 15.3846 12.8821 16.0161 13.4946 16.6111C13.6696 16.7803 13.8403 16.9538 14.024 17.1157C14.7065 17.718 15.4794 18.2094 16.3136 18.574L16.3209 18.5769C16.4449 18.6309 16.5076 18.66 16.6884 18.7373C16.7788 18.7753 16.8721 18.8088 16.9669 18.8336C17.0649 18.8585 17.1681 18.8538 17.2633 18.8201C17.3586 18.7863 17.4417 18.725 17.5021 18.644C18.558 17.365 18.6542 17.2819 18.663 17.2819V17.2848C18.7363 17.2164 18.8235 17.1645 18.9186 17.1326C19.0136 17.1006 19.1145 17.0894 19.2142 17.0996C19.3017 17.1055 19.3907 17.1215 19.4724 17.158C20.2467 17.5123 21.514 18.065 21.514 18.065L22.3628 18.4457C22.5057 18.5142 22.6355 18.6761 22.6399 18.8321C22.6457 18.9298 22.6544 19.0873 22.6209 19.3761C22.5742 19.7538 22.4605 20.2073 22.3467 20.445C22.2688 20.6073 22.1654 20.756 22.0405 20.8855C21.8933 21.04 21.7322 21.1806 21.5592 21.3055C21.4994 21.3505 21.4386 21.3942 21.3769 21.4367C21.1956 21.5518 21.0092 21.6588 20.8184 21.7575C20.4429 21.957 20.0282 22.0715 19.6036 22.093C19.3338 22.1075 19.064 22.128 18.7928 22.1134C18.7811 22.1134 17.9644 21.9865 17.9644 21.9865C15.8911 21.4411 13.9735 20.4195 12.3644 19.0028C12.0349 18.7125 11.7301 18.4005 11.418 18.0898C10.1201 16.7992 9.14006 15.4065 8.54506 14.0911C8.24052 13.4455 8.07601 12.7427 8.06236 12.029C8.05634 11.1436 8.34578 10.2814 8.88486 9.579C8.99131 9.44192 9.09194 9.299 9.26548 9.13421C9.45069 8.95921 9.56736 8.86588 9.69423 8.80171C9.86292 8.71717 10.0469 8.66757 10.2353 8.65588L10.2367 8.65734Z" fill="white"/>
</svg>
